<?xml version="1.0" encoding="UTF-8"?>
<svg version="1.1" xmlns="http://www.w3.org/2000/svg" width="200" height="200">
<path d="M0 0 C66 0 132 0 200 0 C200 66 200 132 200 200 C134 200 68 200 0 200 C0 134 0 68 0 0 Z " fill="#010000" transform="translate(0,0)"/>
<path d="M0 0 C21 0 21 0 25.69140625 3.375 C27.21582031 5.59033203 27.21582031 5.59033203 28.5625 8 C29.652299 9.64325885 30.74214375 11.28648735 31.83203125 12.9296875 C32.35104004 13.76983398 32.87004883 14.60998047 33.40478516 15.47558594 C35.9641289 19.52572587 38.86030892 23.30755451 41.75 27.125 C42.25217041 27.81722656 42.75434082 28.50945312 43.27172852 29.22265625 C44.46592162 30.85183965 45.72669557 32.43187005 47 34 C47.66 34 48.32 34 49 34 C50.31746712 32.55342849 50.31746712 32.55342849 51.6171875 30.625 C52.13474609 29.89394043 52.65230469 29.16288086 53.18554688 28.40966797 C54.02182617 27.21688232 54.02182617 27.21688232 54.875 26 C55.46087891 25.19578613 56.04675781 24.39157227 56.65039062 23.56298828 C59.56518128 19.5500416 62.31574469 15.54306232 64.7890625 11.2421875 C71.11796354 0.76044622 71.11796354 0.76044622 76.57226562 -0.67871094 C82.76477837 -1.35992978 88.85177092 -0.89856074 95 0 C96.07276273 4.84118564 96.4493068 9.49180413 93.88525391 13.92919922 C90.77706422 18.22328282 87.22869072 22.14776324 83.68798828 26.08642578 C81.33538318 28.75343747 79.2063969 31.53675252 77.0625 34.375 C73.05392767 39.63053865 69.00379359 44.85149578 64.9375 50.0625 C59.54329481 56.98237583 54.22451287 63.95105407 49 71 C45.68337608 69.89445869 45.18437095 69.27769674 43.1796875 66.5703125 C42.64819092 65.86205322 42.11669434 65.15379395 41.5690918 64.42407227 C41.0100415 63.66537842 40.45099121 62.90668457 39.875 62.125 C38.71388386 60.57298725 37.55111712 59.02220803 36.38671875 57.47265625 C35.52892822 56.33014404 35.52892822 56.33014404 34.65380859 55.16455078 C31.73120477 51.33936544 28.62999833 47.67082389 25.51171875 44.00390625 C24 42 24 42 24 40 C23.34 40 22.68 40 22 40 C22 58.81 22 77.62 22 97 C14.74 97 7.48 97 0 97 C0 64.99 0 32.98 0 0 Z " fill="#FDAB01" transform="translate(21,45)"/>
<path d="M0 0 C7.26 0 14.52 0 22 0 C22.04531995 7.94563269 22.08195569 15.89116361 22.10362434 23.83689117 C22.11402813 27.52705212 22.12812451 31.21711947 22.15087891 34.90722656 C22.17272955 38.47339285 22.18459419 42.03946953 22.18975449 45.60569763 C22.19520723 47.61741087 22.21080038 49.62908844 22.22659302 51.64074707 C22.22812987 64.26304384 19.47392356 75.10124669 11.6875 85.375 C1.55878056 95.26816782 -10.08288791 98.66223724 -23.98730469 98.54077148 C-34.95733962 98.11201462 -44.18963948 93.71719519 -52 86 C-58.23745368 78.50668317 -63.73590525 68.01988025 -63 58 C-61.66256264 55.13586869 -59.75425415 53.00182458 -57.625 50.6875 C-56.51512312 49.39999038 -55.40707229 48.11090455 -54.30078125 46.8203125 C-53.74471191 46.18512695 -53.18864258 45.54994141 -52.61572266 44.89550781 C-50.19833787 42.05951877 -48.0033436 39.07479579 -45.8125 36.0625 C-44.56558062 34.35725349 -43.30337237 32.66249634 -42 31 C-41.67 31 -41.34 31 -41 31 C-40.99589111 31.8564209 -40.99178223 32.7128418 -40.98754883 33.59521484 C-40.96033008 36.82009179 -40.91099613 40.04371692 -40.84741211 43.26806641 C-40.82443596 44.65466878 -40.80988495 46.04144062 -40.80444336 47.42822266 C-40.76347305 56.15804957 -40.22625851 63.67682087 -35 71 C-29.69720446 75.73866836 -24.34240153 75.61838286 -17.3828125 75.3671875 C-12.70129018 74.8590315 -9.56913883 74.10360707 -6 71 C-0.50994454 63.4156349 -0.26513928 55.75665532 -0.29296875 46.6796875 C-0.27982441 45.32632245 -0.26451189 43.9729769 -0.24714661 42.61965942 C-0.20760169 39.09168978 -0.19712622 35.56423682 -0.19311523 32.03607178 C-0.18372544 28.42232896 -0.14627616 24.80888252 -0.11132812 21.1953125 C-0.0470642 14.13021301 -0.01616868 7.06539739 0 0 Z " fill="#FCD414" transform="translate(157,45)"/>
</svg>
